<?xml version="1.0" encoding="UTF-8" standalone="no"?>
<svg width="72px" height="72px" viewBox="0 0 72 72" version="1.1" xmlns="http://www.w3.org/2000/svg" xmlns:xlink="http://www.w3.org/1999/xlink" xmlns:sketch="http://www.bohemiancoding.com/sketch/ns">
    <!-- Generator: Sketch 3.3 (11970) - http://www.bohemiancoding.com/sketch -->
    <title>gettyimages</title>
    <desc>Created with Sketch.</desc>
    <defs></defs>
    <g id="Page-1" stroke="none" stroke-width="1" fill="none" fill-rule="evenodd" sketch:type="MSPage">
        <g id="4" sketch:type="MSArtboardGroup" transform="translate(-104.000000, -185.000000)">
            <g id="gettyimages" sketch:type="MSLayerGroup" transform="translate(104.000000, 185.000000)">
                <rect id="Rectangle-9" fill="#999999" sketch:type="MSShapeGroup" x="0" y="0" width="72" height="72" rx="4"></rect>
                <path d="M40.673818,25.0430663 C40.673818,27.9879769 38.2717283,30.3084288 35.2994927,30.3084288 C31.9571296,30.3084288 29.6260744,27.9879769 29.6260744,25.0430663 C29.6260744,22.112636 31.9571296,19.7758938 35.2994927,19.7758938 C38.2717283,19.7758938 40.673818,22.112636 40.673818,25.0430663 L40.673818,25.0430663 Z M21.3056841,48.3163667 C21.1430524,48.8195536 20.9579887,49.648545 21.0084606,50.6277685 C21.2552122,55.6342974 26.7716067,58 35.5967162,58 C46.0593593,58 50.790635,53.1129327 50.790635,48.5878704 C50.790635,35.8760655 29.2129524,42.8555215 29.2129524,37.7186708 C29.2129524,35.8760655 31.9272203,35.7529838 35.329402,35.7529838 C43.5600644,35.7529838 47.7118476,31.486755 47.7118476,25.4774723 C47.7118476,23.0266986 46.9585073,21.1895233 45.9528075,19.8410547 C47.1473097,19.1025646 49.173664,19.1025646 51,19.1025646 L51,14.0109645 C47.2744242,13.8842627 44.8106465,14.8580561 43.3020968,16.807453 C41.2850891,15.1042195 37.998806,14.0109645 35.2228501,14.0109645 C26.6949641,14.0109645 22.2796054,19.49534 22.2796054,25.0665967 C22.2796054,28.9219497 24.4237275,31.3600533 27.1398648,33.4995027 C25.6780483,33.9176185 22.0216377,36.2416905 22.0216377,39.2952025 C22.0216377,43.4347295 27.7810452,45.0329815 34.9891838,45.4619574 C40.8420578,45.8185323 43.6983949,47.248452 43.6983949,49.4458222 C43.6983949,50.8721219 41.8888829,52.8577192 36.8529064,52.9916611 C28.6914092,53.2106741 27.8053465,50.8685018 28.3268897,48.4466885 L21.3056841,48.3163667 L21.3056841,48.3163667 Z" id="Fill-11" fill="#FFFFFF" sketch:type="MSShapeGroup"></path>
            </g>
        </g>
    </g>
</svg>