<?xml version="1.0" encoding="UTF-8" standalone="no"?>
<svg width="72px" height="72px" viewBox="0 0 72 72" version="1.1" xmlns="http://www.w3.org/2000/svg" xmlns:xlink="http://www.w3.org/1999/xlink" xmlns:sketch="http://www.bohemiancoding.com/sketch/ns">
    <!-- Generator: Sketch 3.3 (11970) - http://www.bohemiancoding.com/sketch -->
    <title>twitter 2</title>
    <desc>Created with Sketch.</desc>
    <defs></defs>
    <g id="Page-1" stroke="none" stroke-width="1" fill="none" fill-rule="evenodd" sketch:type="MSPage">
        <g id="5" sketch:type="MSArtboardGroup" transform="translate(-104.000000, -419.000000)">
            <g id="twitter-2" sketch:type="MSLayerGroup" transform="translate(104.000000, 419.000000)">
                <rect id="Rectangle-2" fill="#999999" sketch:type="MSShapeGroup" x="0" y="0" width="72" height="72" rx="4"></rect>
                <path d="M62,20.0900984 C60.0883828,20.9547385 58.0310984,21.5379677 55.8724803,21.7989709 C58.0764874,20.4563621 59.7664373,18.3296698 60.5633843,15.7926762 C58.5018777,17.0375431 56.2197592,17.9408503 53.788807,18.4284858 C51.8434119,16.3189789 49.0704586,15 46.0019487,15 C40.1108743,15 35.3344701,19.8602438 35.3344701,25.8557976 C35.3344701,26.7054004 35.4284148,27.5335215 35.6110266,28.32942 C26.7443314,27.8761553 18.8825285,23.5551032 13.6205672,16.987061 C12.7022309,18.5895988 12.1765625,20.4542139 12.1765625,22.4455713 C12.1765625,26.2113204 14.0596797,29.5345457 16.9223555,31.4807913 C15.1743499,31.4238647 13.5287335,30.9351551 12.0900067,30.1220712 C12.0889511,30.1671829 12.0889511,30.2133687 12.0889511,30.2595544 C12.0889511,35.5182845 15.7665185,39.9048559 20.647423,40.9037568 C19.752309,41.1507968 18.8096949,41.2839836 17.8364696,41.2839836 C17.1482451,41.2839836 16.4800763,41.2163162 15.8287965,41.0884998 C17.1873008,45.4009592 21.1266468,48.5405156 25.7943284,48.6275166 C22.1431501,51.5393665 17.5440798,53.2750912 12.5449526,53.2750912 C11.6846721,53.2750912 10.8349471,53.223535 10,53.1225708 C14.7225707,56.2041265 20.3296998,58 26.3537747,58 C45.9776709,58 56.7074275,41.4590598 56.7074275,27.1135535 C56.7074275,26.6431034 56.6979275,26.1737273 56.6778719,25.7075736 C58.7615452,24.1802218 60.5707732,22.2672728 62,20.0900984 L62,20.0900984 L62,20.0900984 Z" id="Shape" fill="#FFFFFF" sketch:type="MSShapeGroup"></path>
            </g>
        </g>
    </g>
</svg>